<?xml version="1.0" standalone="no"?>
<!DOCTYPE svg PUBLIC "-//W3C//DTD SVG 20010904//EN"
 "http://www.w3.org/TR/2001/REC-SVG-20010904/DTD/svg10.dtd">
<svg version="1.0" xmlns="http://www.w3.org/2000/svg"
 width="474.000000pt" height="318.000000pt" viewBox="0 0 474.000000 318.000000"
 preserveAspectRatio="xMidYMid meet">

<g transform="translate(0.000000,318.000000) scale(0.100000,-0.100000)"
fill="#000000" stroke="none">
<path d="M2180 3159 c0 -18 2 -19 15 -9 8 7 15 16 15 21 0 5 -7 9 -15 9 -9 0
-15 -9 -15 -21z"/>
<path d="M2766 3165 c-4 -12 4 -15 40 -15 25 0 59 -7 75 -16 17 -8 33 -13 37
-10 3 3 12 0 20 -7 8 -6 27 -12 42 -12 22 0 28 5 28 23 0 12 -4 22 -9 22 -5 0
-9 7 -9 15 0 8 -4 15 -10 15 -10 0 -14 -14 -11 -37 1 -7 -3 -13 -8 -13 -13 0
-32 35 -24 44 3 3 -32 6 -79 6 -67 0 -87 -3 -92 -15z"/>
<path d="M4070 3166 c0 -9 5 -16 10 -16 6 0 10 4 10 9 0 6 -4 13 -10 16 -5 3
-10 -1 -10 -9z"/>
<path d="M3535 3160 c-8 -12 32 -70 48 -70 6 0 -2 13 -17 29 -16 16 -25 34
-22 40 4 6 5 11 2 11 -3 0 -8 -5 -11 -10z"/>
<path d="M3760 3160 c0 -5 -9 -10 -20 -10 -11 0 -20 -5 -20 -10 0 -6 7 -10 16
-8 11 2 18 -5 19 -19 1 -13 4 -24 6 -25 34 -21 51 -28 59 -23 13 8 13 45 0 45
-5 0 -10 -7 -10 -15 0 -9 -6 -12 -15 -9 -8 4 -12 10 -9 15 3 5 1 9 -5 9 -6 0
-7 7 -4 17 5 11 3 14 -6 8 -10 -5 -11 -2 -6 14 3 11 4 21 1 21 -3 0 -6 -4 -6
-10z"/>
<path d="M2401 3134 c-12 -27 -11 -28 4 -12 10 9 16 21 13 28 -2 7 -10 -1 -17
-16z"/>
<path d="M2671 3151 c-8 -5 -9 -11 -3 -15 5 -3 12 1 16 9 6 17 6 18 -13 6z"/>
<path d="M2705 3139 c5 -14 4 -19 -4 -15 -6 4 -11 3 -11 -2 0 -19 14 -21 32
-6 14 14 20 14 33 4 9 -7 18 -10 22 -6 9 8 3 13 -41 31 -37 16 -38 16 -31 -6z"/>
<path d="M2315 3125 c2 -14 -1 -25 -6 -25 -6 0 -7 -5 -3 -11 4 -8 9 -7 15 2 4
7 5 17 3 21 -3 4 0 8 5 8 6 0 11 -7 11 -15 0 -18 17 -20 22 -3 5 14 -22 48
-38 48 -6 0 -10 -11 -9 -25z"/>
<path d="M3800 3130 c-9 -6 -10 -10 -3 -10 6 0 15 5 18 10 8 12 4 12 -15 0z"/>
<path d="M3930 3120 c0 -5 4 -10 9 -10 5 0 18 -3 28 -7 16 -6 16 -5 4 10 -15
19 -41 23 -41 7z"/>
<path d="M2060 3105 c-14 -8 -32 -14 -41 -15 -18 0 -89 -70 -71 -70 7 0 12 5
12 10 0 6 7 10 15 10 8 0 15 4 15 9 0 5 15 14 33 21 35 12 73 37 66 44 -2 2
-15 -2 -29 -9z"/>
<path d="M3604 3094 c5 -18 3 -24 -5 -18 -8 4 -9 3 -5 -5 4 -6 17 -9 29 -6 12
2 16 2 10 -1 -25 -11 -12 -33 65 -100 42 -37 82 -74 88 -81 6 -7 20 -11 30 -7
16 5 16 4 4 -5 -13 -9 -8 -18 30 -58 25 -26 46 -50 48 -52 1 -2 12 5 25 16 12
11 32 26 45 32 19 10 21 15 11 27 -10 12 -9 13 5 8 28 -11 19 -43 -16 -58 -18
-7 -44 -26 -58 -42 -14 -16 -17 -23 -8 -16 14 12 19 9 35 -15 9 -15 20 -30 24
-33 4 -3 9 -34 13 -70 3 -36 8 -74 10 -85 2 -11 4 -26 5 -32 0 -7 5 -13 11
-13 18 0 21 64 6 108 -8 23 -13 42 -11 42 6 0 115 -164 111 -168 -2 -1 -15 3
-30 9 -22 10 -33 10 -59 -3 -35 -17 -34 -12 -27 -113 3 -35 4 -33 10 20 3 34
2 63 -3 66 -5 4 5 10 22 14 27 6 40 0 104 -47 39 -29 73 -56 75 -59 2 -4 39
-51 83 -105 97 -121 147 -216 155 -300 5 -48 3 -63 -10 -76 -10 -11 -12 -18
-4 -20 17 -6 -6 -66 -51 -135 -38 -58 -157 -193 -170 -193 -4 0 -7 9 -8 20 -1
11 -11 33 -22 49 -24 34 -26 47 -8 58 34 20 47 58 44 134 -3 63 -8 85 -34 130
-28 50 -30 56 -15 67 15 11 15 12 -3 11 -36 -2 -46 1 -40 11 4 6 10 8 15 5 5
-3 12 0 16 6 3 6 0 15 -7 20 -11 6 -10 9 4 15 10 3 28 -1 43 -11 14 -9 28 -14
31 -11 10 10 -8 25 -50 41 -27 10 -50 28 -61 46 -9 16 -21 29 -27 29 -5 0 -9
7 -9 15 0 11 11 14 44 13 25 -1 43 -5 41 -8 -2 -3 6 -7 18 -7 12 -1 23 -7 25
-13 2 -5 8 -8 13 -5 4 3 14 -3 21 -15 7 -11 17 -20 21 -20 5 0 17 -10 27 -22
13 -17 16 -28 9 -47 -5 -13 -7 -26 -4 -29 3 -3 5 0 5 6 0 7 4 12 9 12 5 0 9
-12 9 -26 0 -15 5 -30 11 -34 12 -7 23 -120 12 -120 -8 0 -32 -52 -26 -58 7
-8 45 62 46 88 3 52 -4 105 -14 112 -7 4 -7 11 2 22 10 12 6 25 -28 75 -23 33
-51 66 -64 72 -12 7 -40 26 -62 43 -27 21 -37 25 -32 13 7 -18 6 -19 -35 -21
-16 -1 -28 2 -28 7 0 5 -7 1 -16 -7 -19 -20 -25 -20 -18 -1 4 8 1 22 -6 30 -7
9 -9 30 -5 59 5 31 4 46 -4 46 -6 0 -11 -15 -11 -32 0 -18 -4 -40 -10 -48 -5
-9 -5 -19 2 -27 8 -9 7 -13 -2 -13 -10 0 -9 -5 2 -17 8 -10 14 -29 11 -43 -2
-14 -3 -64 -3 -111 1 -72 -1 -87 -15 -93 -13 -5 -16 -2 -11 9 3 9 2 13 -4 10
-5 -3 -16 8 -25 25 -8 16 -22 30 -31 30 -11 0 -9 -8 10 -33 l26 -34 -22 -19
c-21 -19 -21 -19 -14 0 6 17 5 17 -10 5 -20 -16 -24 -16 -35 3 -14 21 -11 35
18 68 23 27 31 31 60 27 35 -6 44 7 21 32 -10 11 -10 13 0 7 22 -13 13 14 -14
39 -35 32 -58 75 -41 75 7 0 24 -8 37 -17 l25 -17 -19 22 c-11 12 -25 22 -33
22 -7 0 -13 4 -13 9 0 5 11 8 24 7 13 0 22 -4 20 -8 -2 -4 0 -9 5 -12 5 -3 11
0 14 8 8 20 -24 46 -56 46 -31 0 -31 0 -13 45 16 37 24 41 44 25 7 -5 6 -3 -2
6 -22 26 -42 11 -56 -43 -7 -26 -17 -52 -21 -57 -10 -11 -3 33 11 70 9 23 9
25 -4 15 -8 -7 -20 -29 -27 -49 -7 -20 -17 -40 -23 -44 -7 -5 -4 -8 8 -8 15 0
16 -3 6 -15 -16 -19 -6 -19 24 0 22 14 24 14 29 -4 7 -27 -7 -45 -29 -37 -15
6 -14 2 5 -18 l24 -26 -46 0 c-26 0 -47 5 -47 10 0 6 -4 10 -10 10 -28 0 1
-42 31 -45 13 -1 31 -3 39 -4 10 -1 11 -4 4 -9 -9 -5 -8 -11 2 -20 8 -7 14 -8
14 -2 0 5 5 10 12 10 6 0 -1 -14 -17 -30 -24 -25 -29 -39 -29 -80 0 -31 -5
-51 -13 -54 -7 -3 -13 -16 -13 -28 l1 -23 19 24 20 23 0 -45 c0 -25 -5 -58
-10 -73 -9 -23 -9 -25 4 -15 10 9 15 9 18 0 2 -6 3 16 2 50 -1 33 2 59 6 56 4
-3 8 -20 8 -37 0 -18 3 -51 6 -73 2 -22 5 -62 5 -89 1 -42 3 -47 16 -36 8 7
15 19 15 27 0 8 4 12 9 9 12 -8 31 48 31 91 0 19 4 32 9 29 18 -12 -8 -104
-44 -155 -20 -28 -41 -51 -45 -51 -5 0 -16 10 -25 23 l-16 22 4 -24 c2 -13 12
-30 22 -37 30 -22 12 -25 -23 -3 -18 10 -30 24 -27 29 3 6 -1 7 -10 4 -11 -5
-14 -2 -9 12 5 15 4 16 -5 4 -8 -12 -13 -11 -34 8 -13 12 -27 19 -32 15 -4 -5
-5 -3 -1 4 4 7 -6 36 -21 65 -15 29 -26 60 -24 70 1 9 -3 19 -9 23 -5 3 -10
15 -10 27 0 14 -5 18 -15 14 -9 -3 -15 0 -15 9 0 8 5 15 11 15 6 0 9 7 5 15
-3 8 -1 15 4 15 5 0 7 7 4 15 -9 23 24 19 38 -5 7 -11 21 -20 31 -20 17 0 17
1 3 16 -9 8 -16 22 -16 30 0 16 50 69 72 77 7 2 10 8 6 12 -13 14 -53 -4 -72
-34 l-20 -29 -42 24 -43 24 -3 -23 -3 -22 -22 23 c-28 27 -37 28 -23 2 7 -14
7 -20 0 -20 -5 0 -10 5 -10 11 0 8 -5 8 -15 -1 -20 -16 -20 -54 -1 -47 10 4
13 1 10 -7 -3 -8 -14 -12 -25 -9 -14 4 -18 1 -13 -10 3 -9 11 -18 18 -20 24
-9 27 -55 8 -96 -19 -38 -19 -39 -1 -36 14 3 19 -2 19 -18 0 -13 7 -33 16 -45
13 -19 14 -25 2 -39 -11 -14 -11 -16 1 -8 11 6 13 4 8 -9 -4 -10 -7 -32 -7
-49 0 -24 -3 -28 -12 -19 -23 23 -28 12 -8 -20 14 -23 16 -35 8 -45 -5 -7 -8
-19 -5 -28 4 -8 2 -17 -3 -20 -6 -3 -1 -15 9 -27 15 -16 18 -26 10 -45 -12
-31 -12 -30 7 -37 8 -3 12 -2 9 3 -7 13 15 26 24 15 12 -18 65 -36 69 -25 2 6
10 11 18 11 17 0 17 4 2 47 -7 18 -17 33 -23 33 -5 0 -4 4 4 9 18 12 81 -9 81
-26 0 -8 5 -11 12 -7 8 5 9 2 5 -9 -9 -24 1 -21 42 10 47 36 71 61 71 73 0 6
6 10 13 11 41 3 57 8 85 27 21 16 30 18 28 8 -3 -22 -26 -45 -73 -73 -24 -14
-42 -27 -40 -30 3 -2 26 9 52 26 71 45 137 125 88 106 -12 -4 -9 3 10 22 34
37 34 58 0 77 -19 10 -22 15 -11 16 9 0 26 -12 37 -27 19 -23 20 -28 6 -43 -8
-9 -15 -23 -14 -31 0 -8 4 -4 9 9 12 29 26 28 34 -2 11 -43 -4 -80 -40 -105
-19 -13 -34 -27 -34 -31 0 -8 -55 -53 -330 -269 -117 -92 -144 -116 -294 -255
-201 -188 -355 -299 -811 -589 -153 -97 -414 -286 -415 -299 0 -5 250 -8 557
-8 539 0 556 1 539 18 -15 18 -5 26 216 174 258 171 377 261 570 430 157 136
161 139 147 99 -6 -17 -34 -47 -67 -72 -31 -24 -73 -58 -92 -75 -19 -18 -55
-50 -80 -71 -42 -36 -192 -184 -252 -249 -15 -16 -32 -33 -38 -39 -6 -5 -40
-40 -76 -77 -37 -38 -70 -68 -74 -68 -5 0 -11 -9 -15 -19 -3 -10 -15 -21 -25
-24 -43 -11 -19 -27 40 -27 33 0 60 4 60 9 0 5 51 53 113 106 190 166 300 274
442 440 33 38 79 90 101 114 39 42 43 44 58 28 16 -15 19 -15 49 3 18 11 37
20 42 20 6 0 -3 -8 -20 -19 -16 -10 -39 -28 -49 -40 -11 -11 -26 -21 -34 -21
-14 0 -39 -24 -177 -177 -135 -148 -147 -161 -145 -168 1 -4 -5 -12 -13 -18
-14 -11 -91 -112 -112 -146 -25 -40 -50 -76 -56 -81 -3 -3 -11 -15 -18 -27
l-12 -23 466 0 465 0 0 105 c0 77 -3 105 -12 105 -9 0 -8 4 2 10 13 9 13 11 0
21 -11 8 -12 12 -2 16 16 6 16 40 0 46 -10 4 -10 6 0 6 6 1 12 12 12 25 0 13
-6 27 -12 29 -10 4 -10 6 0 6 8 1 12 19 12 55 0 34 -5 56 -12 59 -10 4 -10 6
0 6 9 1 12 44 12 181 0 99 -4 180 -8 180 -4 0 -30 -23 -57 -51 -28 -28 -63
-57 -80 -66 -34 -17 -27 -9 28 31 20 15 35 32 31 37 -3 6 -8 8 -11 6 -2 -3
-19 10 -37 29 -18 19 -40 34 -49 34 -8 0 -25 16 -38 36 -18 30 -19 38 -8 45 8
5 19 7 25 5 6 -3 11 1 10 9 0 7 43 58 98 114 54 56 95 105 92 108 -3 4 -22 -9
-41 -27 -19 -18 -37 -31 -40 -28 -3 3 15 24 40 47 25 23 45 48 45 57 0 24 -11
15 -99 -84 -46 -50 -97 -104 -114 -118 -18 -14 -26 -23 -18 -18 9 5 12 3 7 -5
-4 -6 -11 -9 -16 -6 -4 3 -11 -1 -14 -7 -3 -7 -3 -2 0 12 6 22 62 89 161 189
39 40 36 56 -4 20 -28 -24 -28 -24 -8 -1 22 26 63 52 51 33 -13 -20 7 -11 30
15 24 25 24 28 24 245 0 168 -3 219 -12 219 -9 0 -8 4 2 10 13 9 13 10 0 10
-13 0 -13 1 0 10 12 8 11 10 -7 10 -12 0 -25 -4 -28 -10 -3 -5 -2 -10 4 -10 6
0 8 -7 5 -15 -3 -8 -9 -14 -12 -13 -4 1 -22 -7 -40 -18 -22 -13 -31 -25 -28
-37 2 -9 0 -15 -4 -12 -5 3 -27 -1 -49 -8 -33 -12 -41 -12 -45 -1 -7 19 14 30
25 13 7 -12 9 -11 9 2 0 8 -5 20 -12 27 -9 9 -5 18 18 38 17 16 22 24 12 21
-28 -10 -21 12 7 23 14 5 25 15 25 22 0 10 -3 9 -9 -1 -7 -11 -11 -9 -20 8 -7
11 -8 21 -4 21 15 0 43 58 37 74 -4 11 0 16 12 16 16 0 17 2 4 10 -13 9 -13
11 0 20 12 8 13 11 1 19 -7 5 -9 10 -3 12 14 6 26 49 12 49 -6 0 -8 5 -5 10 3
6 15 10 26 10 13 0 18 4 13 12 -12 19 -11 62 0 70 20 14 34 8 40 -17 12 -49
26 -24 26 46 0 57 -4 75 -17 85 -17 13 -17 14 0 8 12 -4 17 -1 17 11 0 11 -5
15 -15 11 -9 -3 -15 0 -15 9 0 8 7 15 15 15 22 0 18 13 -10 34 -27 21 -24 40
6 31 13 -4 19 -2 19 9 0 9 -6 16 -13 16 -7 0 -18 9 -25 20 -7 11 -20 20 -29
20 -14 0 -15 2 -4 13 11 9 14 9 18 0 3 -9 11 -8 28 5 l22 17 -20 17 c-24 22
-37 23 -37 3 0 -8 -9 -19 -21 -25 -13 -8 -18 -17 -14 -28 5 -13 4 -14 -6 -5
-8 8 -18 9 -31 2 -11 -6 -18 -6 -18 0 0 5 14 14 30 20 22 7 30 16 30 33 0 19
-6 24 -30 26 -28 2 -36 -8 -31 -40 3 -18 -17 -6 -38 22 -21 30 -21 57 1 44 7
-4 8 -2 4 4 -4 7 -11 12 -17 12 -14 0 -49 38 -49 55 0 19 19 19 26 0 4 -8 10
-12 15 -9 19 11 8 24 -31 35 -21 7 -37 16 -34 21 3 5 -3 12 -15 15 -12 3 -21
11 -21 18 0 10 -5 11 -24 2 -13 -6 -21 -17 -19 -24 6 -16 -13 -17 -22 -2 -9
13 -34 -19 -35 -44 0 -31 -20 -8 -20 24 0 16 -4 29 -10 29 -5 0 -10 7 -10 15
0 25 -51 94 -65 89 -7 -3 -16 -1 -20 5 -3 6 2 11 12 11 17 1 16 2 -2 12 -19
11 -19 11 0 19 17 7 18 8 3 8 -10 1 -18 7 -18 15 0 8 -4 17 -9 20 -4 3 -7 -10
-5 -29 2 -32 -10 -49 -18 -25 -2 6 -14 4 -30 -5 -16 -7 -28 -10 -28 -4 0 5 -5
9 -11 9 -5 0 -7 -4 -4 -10 3 -6 -1 -7 -10 -4 -9 4 -14 13 -11 21 4 11 1 13
-14 8 -11 -4 -20 -2 -20 4 0 6 6 11 14 11 24 0 39 27 26 47 -10 16 -10 15 -5
-4 5 -18 3 -22 -9 -17 -9 3 -16 1 -16 -5 0 -6 -8 -11 -17 -11 -17 1 -17 2 1
15 11 8 16 21 13 29 -4 11 3 21 23 31 17 9 30 17 30 19 0 9 -37 1 -52 -11 -13
-11 -21 -12 -37 -4 -17 10 -20 9 -15 -4 4 -8 1 -15 -5 -15 -6 0 -11 8 -12 18
0 10 -3 12 -6 5 -2 -7 -11 -13 -18 -13 -7 0 -16 -7 -19 -16 -9 -24 -19 -10
-11 15 3 12 13 21 21 21 8 0 14 7 14 16 0 13 -3 14 -13 5 -8 -6 -17 -8 -20 -4
-4 3 -7 1 -7 -5 0 -7 -4 -12 -10 -12 -5 0 -10 9 -10 20 0 13 -7 20 -20 20 -11
0 -20 5 -20 10 0 6 6 10 14 10 8 0 21 3 29 6 12 4 14 0 10 -15 -6 -25 5 -27
35 -5 12 8 21 25 21 37 -1 15 -3 17 -6 6 -3 -12 -15 -15 -51 -13 -41 2 -47 5
-46 23 0 12 -5 21 -12 21 -8 0 -11 -12 -7 -39 3 -24 1 -41 -7 -46 -9 -5 -10
-2 -5 14 8 27 -6 27 -23 1 -7 -12 -17 -18 -23 -14 -7 4 -6 11 2 20 6 8 8 21 4
31 -5 10 -7 24 -6 31 2 15 -30 13 -42 -3 -4 -5 -5 1 -2 15 8 34 -25 69 -44 46
-9 -11 -8 -14 6 -12 20 1 27 -23 12 -44 -8 -11 -12 -12 -16 -2 -2 6 -8 10 -13
7 -4 -3 -8 1 -7 8 1 31 -4 45 -17 50 -8 3 -17 -1 -20 -10 -4 -11 -2 -14 9 -9
8 3 15 1 15 -4 0 -19 -42 -10 -47 10 -3 11 -10 20 -15 20 -6 0 -7 -11 -4 -26z
m56 -54 c0 -5 -4 -10 -10 -10 -5 0 -10 5 -10 10 0 6 5 10 10 10 6 0 10 -4 10
-10z m63 -23 c-7 -12 30 -4 39 8 4 6 8 -3 8 -20 -1 -26 -2 -27 -11 -12 -8 13
-14 15 -23 8 -9 -8 -17 -6 -29 7 -15 16 -15 18 3 18 10 0 16 -4 13 -9z m149
-79 c-9 -9 -15 -9 -24 0 -9 9 -7 12 12 12 19 0 21 -3 12 -12z m123 -58 c3 -5
1 -10 -4 -10 -6 0 -11 5 -11 10 0 6 2 10 4 10 3 0 8 -4 11 -10z m-80 -29 c3
-5 1 -12 -5 -16 -5 -3 -10 1 -10 9 0 18 6 21 15 7z m115 -81 c0 -5 -2 -10 -4
-10 -3 0 -8 5 -11 10 -3 6 -1 10 4 10 6 0 11 -4 11 -10z m110 -10 c0 -5 -5
-10 -11 -10 -5 0 -7 5 -4 10 3 6 8 10 11 10 2 0 4 -4 4 -10z m108 -35 c8 -18
8 -24 0 -22 -6 1 -12 -3 -15 -10 -3 -7 3 -9 16 -6 28 7 29 -32 2 -47 -17 -8
-23 -5 -38 20 -9 16 -22 30 -28 30 -5 0 -3 5 5 11 12 9 11 10 -7 6 -13 -3 -23
-3 -23 0 0 8 24 29 40 36 28 10 37 7 48 -18z m-191 -7 c-3 -8 -6 -5 -6 6 -1
11 2 17 5 13 3 -3 4 -12 1 -19z m139 -62 c20 -21 17 -28 -6 -14 -11 7 -20 16
-20 20 0 12 10 9 26 -6z m277 -61 c2 -5 -7 -11 -21 -12 -16 -1 -20 2 -12 7 17
11 2 33 -20 27 -13 -3 -16 0 -13 14 5 18 7 17 33 -4 16 -12 31 -26 33 -32z
m-190 14 c-3 -12 -9 -17 -15 -11 -10 10 0 44 12 37 5 -3 6 -14 3 -26z m-93 -9
c0 -5 -4 -10 -10 -10 -5 0 -10 5 -10 10 0 6 5 10 10 10 6 0 10 -4 10 -10z
m-30 -20 c0 -5 -4 -10 -10 -10 -5 0 -10 5 -10 10 0 6 5 10 10 10 6 0 10 -4 10
-10z m240 -6 c0 -8 -4 -12 -10 -9 -5 3 -10 10 -10 16 0 5 5 9 10 9 6 0 10 -7
10 -16z m34 -22 c2 -4 -4 -8 -14 -8 -10 0 -16 4 -14 8 3 4 9 8 14 8 5 0 11 -4
14 -8z m83 -26 c-2 -6 -13 -11 -24 -12 -15 -1 -19 4 -16 16 3 12 11 16 24 13
11 -3 18 -11 16 -17z m-212 4 c3 -5 1 -10 -4 -10 -6 0 -11 5 -11 10 0 6 2 10
4 10 3 0 8 -4 11 -10z m92 -42 c-3 -8 -6 -5 -6 6 -1 11 2 17 5 13 3 -3 4 -12
1 -19z m133 -4 c0 -17 -22 -14 -28 4 -2 7 3 12 12 12 9 0 16 -7 16 -16z m-69
-24 c6 0 7 -5 4 -10 -12 -19 17 -41 48 -38 16 2 29 0 28 -4 -1 -5 -1 -12 -1
-17 0 -5 -7 -12 -16 -15 -8 -3 -12 -2 -9 4 3 6 -2 10 -13 10 -10 0 -27 9 -37
20 -11 12 -25 18 -34 15 -11 -5 -11 -1 3 14 12 14 14 20 5 23 -8 3 -9 9 -4 19
8 12 10 11 13 -3 2 -10 8 -18 13 -18z m103 -26 c9 -23 4 -24 -16 -2 -14 14
-15 18 -4 18 8 0 17 -7 20 -16z m-184 -24 c0 -5 -4 -10 -10 -10 -5 0 -10 5
-10 10 0 6 5 10 10 10 6 0 10 -4 10 -10z m290 -15 c0 -7 -30 -13 -34 -7 -3 4
4 9 15 9 10 1 19 0 19 -2z m-60 -24 c0 -5 -11 -8 -24 -7 -13 0 -22 4 -19 9 6
10 43 9 43 -2z m-70 -25 c0 -3 -4 -8 -10 -11 -5 -3 -10 -1 -10 4 0 6 5 11 10
11 6 0 10 -2 10 -4z m134 -12 c9 -4 16 -17 15 -33 0 -14 -3 -20 -6 -13 -2 6
-12 12 -21 12 -15 0 -15 2 -2 10 13 8 12 10 -3 10 -10 0 -15 5 -12 10 7 12 8
12 29 4z m-561 -271 c-7 -2 -19 -2 -25 0 -7 3 -2 5 12 5 14 0 19 -2 13 -5z
m517 -63 c0 -5 -4 -10 -10 -10 -5 0 -10 5 -10 10 0 6 5 10 10 10 6 0 10 -4 10
-10z m-550 -13 c0 -8 -9 -22 -20 -32 -23 -21 -28 -4 -5 18 8 8 11 17 8 21 -4
3 -1 6 5 6 7 0 12 -6 12 -13z m79 -106 c5 -9 12 -44 16 -79 7 -64 1 -85 -40
-126 -23 -23 -32 -20 -50 14 -20 38 -19 53 1 16 12 -22 18 -26 25 -15 4 7 4
16 -1 19 -5 3 -12 18 -16 34 -4 17 -3 27 2 23 17 -10 41 18 47 55 5 31 1 43
-19 67 -13 16 -24 32 -24 35 0 11 50 -26 59 -43z m-135 -14 c-7 -50 -18 -60
-27 -25 -5 18 21 83 30 74 2 -1 0 -24 -3 -49z m27 0 c-10 -9 -11 -8 -5 6 3 10
9 15 12 12 3 -3 0 -11 -7 -18z m-404 -164 c2 -44 22 -95 34 -87 5 3 9 0 9 -6
0 -7 7 -10 15 -6 22 8 49 -23 34 -40 -6 -7 -7 -19 -3 -26 20 -35 -63 54 -92
99 -33 51 -36 77 -10 95 6 4 11 8 11 8 0 0 1 -16 2 -37z m387 -18 c-9 -14 -18
-25 -21 -25 -5 0 5 18 20 38 17 22 18 13 1 -13z m-33 -129 c7 -24 6 -26 -5
-17 -12 10 -15 6 -21 -19 -9 -41 -29 -39 -22 3 8 49 28 95 34 77 3 -8 9 -28
14 -44z m486 -608 c-3 -7 -5 -2 -5 12 0 14 2 19 5 13 2 -7 2 -19 0 -25z m198
-376 c-8 -8 -25 10 -19 20 4 6 9 5 15 -3 4 -7 6 -15 4 -17z m-45 -372 c0 -5
-4 -10 -10 -10 -5 0 -10 5 -10 10 0 6 5 10 10 10 6 0 10 -4 10 -10z m-20 -80
c0 -5 -4 -10 -10 -10 -5 0 -10 5 -10 10 0 6 5 10 10 10 6 0 10 -4 10 -10z m23
-95 c-3 -9 -8 -14 -10 -11 -3 3 -2 9 2 15 9 16 15 13 8 -4z"/>
<path d="M4210 2720 c0 -5 7 -10 15 -10 8 0 15 5 15 10 0 6 -7 10 -15 10 -8 0
-15 -4 -15 -10z"/>
<path d="M3871 3099 c-1 -32 25 -46 32 -18 3 12 0 19 -8 19 -7 0 -16 6 -18 13
-3 6 -6 0 -6 -14z"/>
<path d="M4391 3104 c0 -11 3 -14 6 -6 3 7 2 16 -1 19 -3 4 -6 -2 -5 -13z"/>
<path d="M4130 3101 c0 -6 4 -13 10 -16 6 -3 7 1 4 9 -7 18 -14 21 -14 7z"/>
<path d="M3840 3090 c0 -5 5 -10 11 -10 5 0 7 5 4 10 -3 6 -8 10 -11 10 -2 0
-4 -4 -4 -10z"/>
<path d="M3928 3075 c2 -14 8 -25 13 -25 5 0 8 11 7 25 -1 14 -8 25 -14 25 -7
0 -9 -10 -6 -25z"/>
<path d="M4004 3084 c-18 -14 -18 -15 4 -4 12 6 27 8 32 5 6 -3 10 -1 10 4 0
16 -23 13 -46 -5z"/>
<path d="M4120 3060 c0 -4 6 -13 14 -19 10 -9 15 -8 19 3 3 8 -2 16 -14 19
-10 3 -19 2 -19 -3z"/>
<path d="M4545 3060 c-3 -5 -1 -10 4 -10 6 0 11 5 11 10 0 6 -2 10 -4 10 -3 0
-8 -4 -11 -10z"/>
<path d="M3997 3041 c-4 -15 2 -22 24 -30 16 -5 29 -15 29 -20 0 -15 -23 -14
-38 1 -6 6 -15 8 -19 4 -4 -4 -3 -10 3 -14 6 -4 13 -15 17 -25 6 -16 8 -16 27
3 11 11 24 20 28 20 15 0 53 41 47 51 -9 14 -25 11 -25 -6 0 -8 -6 -13 -12
-11 -7 1 -10 1 -5 -1 14 -8 7 -22 -8 -17 -8 4 -15 12 -15 19 0 8 -8 11 -20 8
-11 -3 -20 0 -20 6 0 6 8 11 18 11 14 0 15 2 2 10 -22 14 -27 12 -33 -9z"/>
<path d="M4580 3050 c0 -5 5 -10 10 -10 6 0 10 5 10 10 0 6 -4 10 -10 10 -5 0
-10 -4 -10 -10z"/>
<path d="M3890 3034 c0 -8 5 -12 10 -9 6 3 10 10 10 16 0 5 -4 9 -10 9 -5 0
-10 -7 -10 -16z"/>
<path d="M2840 3033 c0 -17 18 -35 28 -29 5 3 12 -1 16 -9 7 -19 2 -19 -37 1
-21 12 -32 13 -35 5 -2 -6 -10 -11 -17 -11 -14 0 -29 -29 -20 -38 3 -3 5 0 5
7 0 10 9 11 33 7 17 -4 42 -7 54 -6 19 0 21 -4 16 -35 -4 -27 -2 -35 10 -35 8
0 18 7 21 16 4 11 2 15 -7 11 -9 -3 -13 5 -13 29 0 27 3 33 15 29 19 -8 -27
43 -51 56 -10 5 -18 6 -18 2z"/>
<path d="M3110 3034 c-28 -8 -67 -124 -41 -124 14 0 61 48 61 63 0 8 9 22 20
32 31 28 10 42 -40 29z"/>
<path d="M3805 3030 c3 -5 10 -10 16 -10 5 0 9 5 9 10 0 6 -7 10 -16 10 -8 0
-12 -4 -9 -10z"/>
<path d="M2745 3020 c3 -5 14 -10 23 -10 15 0 15 2 2 10 -20 13 -33 13 -25 0z"/>
<path d="M4560 3020 c-9 -6 -10 -10 -3 -10 6 0 15 5 18 10 8 12 4 12 -15 0z"/>
<path d="M2690 2980 c0 -5 5 -10 10 -10 6 0 10 5 10 10 0 6 -4 10 -10 10 -5 0
-10 -4 -10 -10z"/>
<path d="M4123 2975 c-15 -16 -16 -25 -5 -25 4 0 13 9 20 20 14 23 3 26 -15 5z"/>
<path d="M4156 2971 c-4 -7 -5 -15 -2 -18 9 -9 19 4 14 18 -4 11 -6 11 -12 0z"/>
<path d="M4457 2961 c-3 -11 1 -22 8 -24 8 -4 10 3 7 19 -5 29 -8 30 -15 5z"/>
<path d="M2951 2944 c-14 -32 -14 -47 1 -38 7 4 8 3 4 -4 -4 -7 -2 -12 3 -12
11 0 10 -35 -2 -46 -12 -12 -8 -24 7 -18 13 5 24 41 32 102 1 13 -4 26 -15 32
-15 7 -20 4 -30 -16z"/>
<path d="M3970 2955 c0 -9 5 -15 11 -13 6 2 11 8 11 13 0 5 -5 11 -11 13 -6 2
-11 -4 -11 -13z"/>
<path d="M1834 2945 c-18 -13 -18 -14 4 -8 12 3 25 9 28 14 8 14 -10 11 -32
-6z"/>
<path d="M2796 2936 c3 -9 10 -16 16 -16 5 0 15 -15 23 -32 13 -30 14 -31 14
-8 0 16 -11 34 -30 48 -20 16 -27 19 -23 8z"/>
<path d="M2275 2920 c4 -6 11 -8 16 -5 14 9 11 15 -7 15 -8 0 -12 -5 -9 -10z"/>
<path d="M4190 2921 c0 -13 26 -32 33 -24 8 7 -11 33 -24 33 -5 0 -9 -4 -9 -9z"/>
<path d="M4267 2923 c-12 -12 -7 -22 8 -17 8 4 15 10 15 15 0 11 -14 12 -23 2z"/>
<path d="M1775 2910 c-3 -5 1 -10 9 -10 9 0 16 5 16 10 0 6 -4 10 -9 10 -6 0
-13 -4 -16 -10z"/>
<path d="M2735 2901 c-6 -5 -21 -11 -35 -14 -24 -4 -24 -4 3 -6 16 0 35 6 43
14 16 16 5 22 -11 6z"/>
<path d="M4166 2892 c-2 -4 4 -8 14 -8 10 0 16 4 14 8 -3 4 -9 8 -14 8 -5 0
-11 -4 -14 -8z"/>
<path d="M1945 2881 c-6 -11 9 -23 19 -14 9 9 7 23 -3 23 -6 0 -12 -4 -16 -9z"/>
<path d="M2924 2872 c-11 -19 -7 -52 7 -52 14 0 11 27 -3 34 -7 3 -2 3 12 -1
23 -5 24 -5 10 13 -8 10 -15 20 -15 21 0 1 -5 -6 -11 -15z"/>
<path d="M4219 2874 c-12 -14 -11 -16 5 -13 11 2 21 10 24 17 5 17 -13 15 -29
-4z"/>
<path d="M1747 2873 c-4 -3 -7 -11 -7 -17 0 -6 5 -5 12 2 6 6 9 14 7 17 -3 3
-9 2 -12 -2z"/>
<path d="M1874 2871 c4 -6 0 -11 -10 -11 -14 0 -15 -3 -7 -11 14 -14 46 -4 41
13 -2 6 -10 14 -18 16 -7 3 -10 0 -6 -7z"/>
<path d="M4430 2870 c0 -5 5 -10 11 -10 5 0 7 5 4 10 -3 6 -8 10 -11 10 -2 0
-4 -4 -4 -10z"/>
<path d="M2390 2849 c0 -5 19 -14 43 -19 23 -6 53 -20 67 -31 l25 -20 -24 6
c-32 10 -20 -8 24 -34 19 -11 35 -16 35 -11 0 6 -4 10 -10 10 -5 0 -12 11 -16
25 -10 39 -144 108 -144 74z"/>
<path d="M3030 2844 c0 -8 5 -12 10 -9 6 4 8 11 5 16 -9 14 -15 11 -15 -7z"/>
<path d="M4093 2844 c-17 -18 -16 -27 1 -21 8 3 17 1 20 -6 3 -9 7 -8 14 2 5
7 15 10 21 7 6 -4 14 0 17 9 9 23 -1 28 -26 15 -15 -8 -25 -9 -29 -2 -4 6 -11
5 -18 -4z"/>
<path d="M4242 2852 c-9 -7 -8 -13 8 -27 11 -10 20 -13 20 -7 0 6 -6 13 -12
15 -10 4 -9 8 2 16 17 12 1 15 -18 3z"/>
<path d="M4381 2833 c7 -10 15 -20 16 -22 2 -2 3 5 3 17 0 14 -6 22 -16 22
-14 0 -15 -3 -3 -17z"/>
<path d="M1693 2807 c-24 -17 -41 -32 -39 -34 2 -2 16 -6 31 -9 21 -4 26 -2
22 10 -3 8 0 20 8 26 10 8 14 8 18 -2 2 -7 4 -1 4 15 0 15 0 27 -1 26 0 0 -20
-15 -43 -32z"/>
<path d="M1793 2814 c-18 -14 -33 -33 -33 -42 0 -13 4 -11 16 7 9 12 30 31 48
42 17 10 24 19 16 19 -8 0 -30 -12 -47 -26z"/>
<path d="M1944 2808 c10 -6 22 -6 26 -2 5 5 -3 10 -18 11 -22 1 -24 0 -8 -9z"/>
<path d="M1840 2798 c0 -19 18 -43 25 -36 9 9 -4 48 -16 48 -5 0 -9 -6 -9 -12z"/>
<path d="M4655 2800 c-3 -5 -1 -10 4 -10 6 0 11 5 11 10 0 6 -2 10 -4 10 -3 0
-8 -4 -11 -10z"/>
<path d="M4243 2784 c0 -7 14 -26 31 -41 17 -15 25 -21 19 -13 -7 8 -13 21
-12 30 0 10 2 11 6 3 7 -18 16 -16 30 5 9 15 8 19 -3 19 -7 0 -11 -4 -9 -7 3
-4 -6 -7 -20 -7 -14 0 -22 3 -20 7 3 4 -1 10 -8 13 -8 3 -14 -1 -14 -9z"/>
<path d="M4458 2793 c7 -3 16 -2 19 1 4 3 -2 6 -13 5 -11 0 -14 -3 -6 -6z"/>
<path d="M4515 2780 c3 -5 10 -10 16 -10 5 0 9 5 9 10 0 6 -7 10 -16 10 -8 0
-12 -4 -9 -10z"/>
<path d="M2440 2758 c0 -7 5 -20 10 -28 9 -13 12 -13 21 3 6 10 15 14 22 10 7
-4 6 0 -2 10 -16 20 -51 23 -51 5z"/>
<path d="M1625 2728 c-20 -21 -31 -26 -34 -17 -2 7 1 15 8 17 6 2 11 8 11 14
0 6 -9 3 -20 -7 -14 -12 -17 -22 -11 -28 7 -7 4 -15 -7 -23 -9 -7 -14 -15 -11
-19 4 -3 14 1 22 10 9 8 20 15 24 15 11 0 57 60 51 65 -2 2 -17 -10 -33 -27z"/>
<path d="M4317 2743 c-10 -9 -9 -23 2 -23 5 0 11 7 15 15 5 15 -5 20 -17 8z"/>
<path d="M4353 2737 c4 -10 7 -20 7 -23 0 -2 6 -1 14 2 8 3 16 -2 19 -10 4
-14 5 -14 3 0 0 9 -12 24 -26 33 -23 15 -24 15 -17 -2z"/>
<path d="M1673 2733 c-7 -2 -13 -9 -13 -14 0 -6 5 -7 10 -4 6 3 10 0 10 -9 0
-8 -6 -16 -12 -19 -7 -2 -10 -7 -7 -11 5 -6 69 48 69 59 0 6 -41 5 -57 -2z"/>
<path d="M3804 2725 c20 -15 20 -15 0 -15 -13 -1 -10 -5 12 -14 18 -8 37 -22
43 -33 6 -11 11 -13 11 -5 0 25 -21 52 -53 67 -29 14 -30 14 -13 0z"/>
<path d="M1732 2708 c-12 -15 -42 -101 -37 -107 9 -8 24 11 18 24 -6 18 13 20
21 3 3 -7 5 2 3 20 -2 17 0 32 4 32 3 0 9 9 12 20 6 22 -5 26 -21 8z"/>
<path d="M2314 2698 c-45 -34 -57 -58 -30 -58 8 0 19 13 24 30 8 20 20 32 44
39 23 6 26 9 12 10 -12 1 -34 -9 -50 -21z"/>
<path d="M3732 2710 c-35 -8 -67 -30 -45 -30 7 0 15 5 18 10 3 6 22 10 41 10
19 0 34 5 34 10 0 11 -1 11 -48 0z"/>
<path d="M4645 2710 c-3 -5 -1 -10 5 -10 6 0 10 -8 8 -17 -3 -15 3 -17 37 -15
46 4 55 10 35 22 -9 5 -19 5 -27 -1 -15 -13 -33 -3 -33 17 0 16 -16 19 -25 4z"/>
<path d="M1951 2693 c2 -36 14 -62 25 -55 14 9 40 57 26 48 -5 -3 -12 1 -16 9
-8 21 -36 19 -35 -2z"/>
<path d="M4327 2691 c-17 -6 -17 -8 -4 -20 13 -10 17 -9 27 8 11 22 7 24 -23
12z"/>
<path d="M4450 2691 c0 -5 7 -11 15 -15 8 -3 15 -1 15 3 0 5 -7 11 -15 15 -8
3 -15 1 -15 -3z"/>
<path d="M4562 2680 c0 -14 2 -19 5 -12 2 6 2 18 0 25 -3 6 -5 1 -5 -13z"/>
<path d="M4595 2682 c-3 -9 -3 -13 1 -9 4 4 15 0 24 -8 14 -13 16 -12 16 5 0
24 -33 33 -41 12z"/>
<path d="M1510 2668 c-12 -22 -12 -22 6 -6 10 10 15 20 12 24 -4 3 -12 -5 -18
-18z"/>
<path d="M2430 2680 c0 -5 5 -10 10 -10 6 0 10 5 10 10 0 6 -4 10 -10 10 -5 0
-10 -4 -10 -10z"/>
<path d="M1605 2659 c-11 -17 1 -21 15 -4 8 9 8 15 2 15 -6 0 -14 -5 -17 -11z"/>
<path d="M2820 2650 c0 -5 5 -10 10 -10 6 0 10 5 10 10 0 6 -4 10 -10 10 -5 0
-10 -4 -10 -10z"/>
<path d="M3298 2613 c-31 -59 -52 -148 -39 -171 8 -14 11 -12 16 13 4 17 19
69 34 118 15 48 24 87 21 87 -3 0 -18 -21 -32 -47z"/>
<path d="M4515 2650 c3 -5 11 -10 16 -10 6 0 7 5 4 10 -3 6 -11 10 -16 10 -6
0 -7 -4 -4 -10z"/>
<path d="M4680 2625 c0 -8 2 -15 4 -15 2 0 6 7 10 15 3 8 1 15 -4 15 -6 0 -10
-7 -10 -15z"/>
<path d="M1450 2620 c0 -12 28 -21 35 -11 2 5 -4 11 -15 14 -11 3 -20 2 -20
-3z"/>
<path d="M4615 2620 c-3 -5 -1 -10 4 -10 6 0 11 5 11 10 0 6 -2 10 -4 10 -3 0
-8 -4 -11 -10z"/>
<path d="M1416 2595 c-4 -14 -18 -31 -31 -37 -14 -6 -25 -15 -25 -19 0 -16 21
-20 37 -7 14 11 15 10 9 -12 -5 -17 -4 -21 2 -11 8 11 11 11 16 0 3 -8 3 -4 0
9 -4 15 -1 22 7 20 7 -2 13 6 14 17 0 13 6 19 17 17 9 -1 19 2 23 8 3 5 0 7
-8 4 -8 -3 -24 4 -35 16 l-20 21 -6 -26z"/>
<path d="M1625 2609 c-4 -6 -5 -12 -2 -15 2 -3 7 2 10 11 7 17 1 20 -8 4z"/>
<path d="M3863 2598 c-19 -25 -23 -48 -8 -48 8 0 15 8 15 18 0 29 12 34 33 15
19 -17 20 -17 8 5 -13 24 -33 29 -48 10z"/>
<path d="M4640 2599 c0 -5 5 -7 10 -4 6 3 10 8 10 11 0 2 -4 4 -10 4 -5 0 -10
-5 -10 -11z"/>
<path d="M3600 2589 c0 -5 5 -7 10 -4 6 3 10 8 10 11 0 2 -4 4 -10 4 -5 0 -10
-5 -10 -11z"/>
<path d="M4580 2589 c0 -5 5 -7 10 -4 6 3 10 8 10 11 0 2 -4 4 -10 4 -5 0 -10
-5 -10 -11z"/>
<path d="M4711 2568 c-1 -29 2 -36 14 -32 16 7 21 24 6 24 -5 0 -12 10 -14 23
-3 14 -5 8 -6 -15z"/>
<path d="M1478 2552 c-20 -20 -41 -54 -48 -74 -6 -21 -16 -40 -21 -43 -5 -4
-9 -11 -9 -18 0 -6 11 5 25 24 14 19 28 33 30 32 14 -8 18 -1 5 7 -12 7 -9 14
19 40 19 16 38 30 43 30 11 0 10 27 0 34 -5 3 -25 -12 -44 -32z"/>
<path d="M4605 2577 c-6 -7 -11 -23 -11 -37 -1 -22 3 -26 30 -28 17 -1 39 -3
48 -4 9 -2 18 2 20 7 2 6 -11 11 -29 13 -40 4 -61 26 -43 47 7 8 9 15 4 15 -5
-1 -14 -6 -19 -13z"/>
<path d="M2473 2538 c1 -31 -5 -52 -22 -74 -18 -25 -21 -36 -12 -50 6 -11 11
-14 11 -9 0 6 10 11 21 12 26 2 37 12 24 21 -14 10 -18 42 -5 42 6 0 8 -5 4
-11 -4 -7 -1 -10 7 -7 22 7 23 70 1 96 -27 31 -31 28 -29 -20z"/>
<path d="M2966 2564 c-4 -10 1 -18 14 -21 11 -3 18 -9 15 -13 -9 -14 7 -40 24
-40 9 0 22 -5 29 -12 6 -6 14 -9 17 -7 8 8 -41 74 -68 92 -23 15 -26 15 -31 1z"/>
<path d="M1545 2551 c-3 -10 -14 -26 -25 -36 -11 -10 -20 -22 -20 -26 0 -12
45 33 59 59 7 12 8 22 2 22 -5 0 -12 -8 -16 -19z"/>
<path d="M1616 2532 c-7 -12 4 -52 15 -52 13 0 11 17 -2 26 -8 5 -8 9 1 14 8
5 9 10 2 14 -6 3 -13 3 -16 -2z"/>
<path d="M1300 2489 c-25 -16 -50 -33 -57 -39 -7 -5 -16 -10 -22 -10 -5 0 -11
-7 -15 -15 -3 -8 -12 -15 -21 -15 -8 0 -15 -4 -15 -10 0 -18 28 -11 55 14 15
14 39 27 54 31 24 5 80 61 69 69 -1 2 -23 -10 -48 -25z"/>
<path d="M4720 2510 c0 -5 5 -10 10 -10 6 0 10 5 10 10 0 6 -4 10 -10 10 -5 0
-10 -4 -10 -10z"/>
<path d="M3760 2501 c0 -6 5 -13 10 -16 6 -3 10 1 10 9 0 9 -4 16 -10 16 -5 0
-10 -4 -10 -9z"/>
<path d="M1387 2475 c-4 -8 -2 -17 3 -20 6 -4 10 3 10 14 0 25 -6 27 -13 6z"/>
<path d="M3020 2470 c-13 -8 -12 -10 3 -10 9 0 17 5 17 10 0 12 -1 12 -20 0z"/>
<path d="M2004 2443 c3 -24 29 -53 48 -53 11 0 2 48 -13 66 -19 23 -38 17 -35
-13z"/>
<path d="M3798 2453 c-10 -12 -6 -14 24 -8 30 6 38 3 52 -16 8 -13 18 -20 21
-17 10 9 -34 45 -61 51 -14 2 -29 -2 -36 -10z"/>
<path d="M3880 2461 c0 -8 52 -22 58 -16 2 1 -11 7 -27 13 -17 6 -31 7 -31 3z"/>
<path d="M1920 2413 c0 -13 29 -38 35 -31 3 3 -4 13 -15 23 -11 10 -20 13 -20
8z"/>
<path d="M3210 2411 c0 -5 5 -13 10 -16 6 -3 10 -2 10 4 0 5 -4 13 -10 16 -5
3 -10 2 -10 -4z"/>
<path d="M3615 2410 c-8 -12 20 -24 35 -15 6 3 8 11 5 16 -8 12 -32 12 -40 -1z"/>
<path d="M4712 2408 c5 -15 28 -23 28 -10 0 5 -7 13 -16 16 -10 4 -14 1 -12
-6z"/>
<path d="M4010 2403 c0 -6 11 -27 25 -47 14 -20 25 -40 25 -45 0 -4 11 -18 25
-31 14 -13 25 -18 25 -12 0 7 -5 12 -12 12 -6 0 -8 3 -5 6 4 4 -5 20 -18 36
-14 16 -25 35 -25 42 0 7 -9 21 -20 31 -11 10 -20 14 -20 8z"/>
<path d="M2187 2382 c-5 -7 -13 -9 -19 -6 -7 5 -8 -8 -3 -42 4 -27 8 -50 10
-52 2 -2 12 1 24 7 16 9 18 16 11 39 -5 15 -10 36 -12 47 -3 14 -6 16 -11 7z"/>
<path d="M1098 2373 c-21 -2 -38 -8 -38 -14 0 -5 -5 -9 -10 -9 -12 0 -12 0
-81 -58 -28 -24 -62 -42 -85 -46 -48 -8 -111 -63 -145 -126 -27 -51 -38 -62
-56 -55 -7 2 -20 -7 -29 -20 -9 -14 -21 -25 -27 -25 -6 0 -25 -13 -42 -28 -16
-16 -46 -35 -65 -42 -19 -8 -41 -22 -49 -33 -13 -18 -14 -18 -37 4 -22 21 -24
21 -31 4 -4 -11 -2 -20 5 -23 20 -6 14 -37 -20 -98 -28 -54 -32 -68 -35 -162
-2 -72 2 -115 13 -147 18 -53 77 -156 105 -180 28 -27 23 -2 -6 25 -24 23 -35
47 -15 35 6 -3 7 1 4 9 -3 9 -10 16 -16 16 -5 0 -6 5 -3 10 3 6 -1 13 -10 16
-9 4 -14 13 -11 20 3 7 1 16 -5 20 -7 4 -6 10 1 19 8 10 7 14 -2 18 -11 4 -11
9 0 27 10 16 11 25 3 33 -16 16 -13 88 5 117 l15 25 -4 -27 c-2 -16 -1 -28 4
-28 13 0 24 23 20 44 -3 20 45 76 66 76 10 0 12 -10 7 -39 -4 -27 -2 -40 7
-43 11 -4 15 7 16 43 2 40 -1 49 -15 50 -14 0 -14 2 -2 6 8 3 21 13 28 22 11
14 14 14 22 1 8 -13 10 -12 10 2 0 12 5 16 18 11 14 -5 15 -3 5 8 -15 15 -17
55 -3 64 5 3 7 12 3 20 -5 15 12 21 20 8 2 -5 2 -2 0 6 -2 8 2 11 10 8 7 -3
19 3 25 14 10 15 8 21 -9 33 -11 7 -16 17 -11 20 6 3 13 -1 16 -10 4 -10 13
-13 25 -9 11 3 22 1 26 -5 10 -15 43 50 37 72 -2 10 -8 15 -13 12 -5 -3 -6 2
-2 11 4 12 8 13 13 5 4 -7 12 0 20 20 12 29 38 37 32 11 -1 -7 2 -10 8 -6 8 5
8 11 1 19 -14 16 12 41 57 57 18 6 32 17 32 24 0 7 14 15 30 19 17 3 30 12 30
20 0 18 63 74 104 91 74 31 100 44 86 43 -8 -1 -32 -3 -52 -5z m-367 -356
c-10 -9 -11 -8 -5 6 3 10 9 15 12 12 3 -3 0 -11 -7 -18z m-118 -59 c4 -10 8
-10 15 1 7 9 12 10 16 2 7 -11 6 -12 -31 -16 -12 -1 -29 -5 -39 -9 -17 -6 -17
-5 1 14 21 23 31 25 38 8z"/>
<path d="M1215 2349 c-4 -6 -5 -12 -2 -15 2 -3 7 2 10 11 7 17 1 20 -8 4z"/>
<path d="M2297 2354 c-10 -17 6 -65 26 -75 17 -9 19 -9 14 4 -4 12 -1 14 11
10 9 -3 22 -10 28 -15 7 -5 14 -3 17 6 6 15 -31 46 -54 46 -7 0 -17 7 -24 17
-7 9 -14 12 -18 7z"/>
<path d="M1710 2311 c0 -5 -8 -11 -17 -14 -10 -2 19 -4 63 -3 64 1 80 4 72 14
-12 14 -118 17 -118 3z"/>
<path d="M2060 2295 c0 -16 30 -75 39 -75 19 0 20 17 1 48 -17 28 -40 43 -40
27z"/>
<path d="M1273 2273 c-7 -3 -13 -11 -13 -19 0 -8 -8 -14 -19 -14 -13 0 -18 -6
-16 -22 1 -13 3 -31 4 -40 1 -11 7 -15 15 -12 9 4 21 -6 31 -26 13 -24 19 -29
30 -20 9 8 11 20 5 43 -5 18 -13 50 -17 73 -5 26 -13 39 -20 37z"/>
<path d="M2475 2270 c-3 -5 -1 -10 4 -10 6 0 11 5 11 10 0 6 -2 10 -4 10 -3 0
-8 -4 -11 -10z"/>
<path d="M3260 2249 c0 -5 5 -7 10 -4 6 3 10 8 10 11 0 2 -4 4 -10 4 -5 0 -10
-5 -10 -11z"/>
<path d="M3303 2211 c-10 -15 -9 -20 2 -25 9 -3 15 1 15 11 0 13 3 13 15 3 18
-15 20 1 3 18 -16 16 -21 15 -35 -7z"/>
<path d="M1632 2211 c-9 -5 1 -10 30 -14 46 -6 61 -1 38 13 -19 12 -51 12 -68
1z"/>
<path d="M3810 2189 c0 -5 5 -7 10 -4 6 3 10 8 10 11 0 2 -4 4 -10 4 -5 0 -10
-5 -10 -11z"/>
<path d="M3767 2154 c-33 -35 -71 -104 -58 -104 6 0 11 6 11 13 0 6 18 36 40
65 43 56 46 68 7 26z"/>
<path d="M3150 2149 c0 -5 5 -7 10 -4 6 3 10 8 10 11 0 2 -4 4 -10 4 -5 0 -10
-5 -10 -11z"/>
<path d="M2410 2129 c0 -5 5 -7 10 -4 6 3 10 8 10 11 0 2 -4 4 -10 4 -5 0 -10
-5 -10 -11z"/>
<path d="M2667 2106 c-9 -21 -17 -42 -17 -47 0 -4 -10 -25 -22 -46 -12 -21
-18 -35 -13 -31 4 4 16 3 26 -3 17 -9 19 -6 19 31 0 23 7 55 16 71 8 17 13 38
11 47 -2 12 -9 4 -20 -22z"/>
<path d="M2762 2115 c-14 -29 2 -34 18 -6 12 24 13 31 2 31 -5 0 -14 -11 -20
-25z"/>
<path d="M3074 2130 c3 -8 0 -26 -7 -40 -12 -23 -10 -27 18 -45 18 -13 32 -32
35 -50 4 -21 7 -25 12 -14 11 28 -13 117 -39 141 -14 13 -22 16 -19 8z"/>
<path d="M3219 2128 c-8 -7 -12 -12 -10 -10 2 1 15 -5 28 -13 23 -16 28 -10
17 19 -7 19 -15 20 -35 4z"/>
<path d="M3363 2113 c9 -9 19 -14 23 -11 10 10 -6 28 -24 28 -15 0 -15 -1 1
-17z"/>
<path d="M1556 2108 c5 -8 0 -9 -14 -6 -12 4 -24 3 -26 -1 -2 -3 25 -7 61 -8
56 -2 63 -1 53 12 -15 18 -85 21 -74 3z"/>
<path d="M3456 2101 c-4 -7 -5 -15 -2 -18 9 -9 19 4 14 18 -4 11 -6 11 -12 0z"/>
<path d="M3556 2078 c-6 -30 2 -55 11 -31 2 7 11 9 19 6 20 -7 18 10 -5 36
l-18 21 -7 -32z"/>
<path d="M830 2090 c-9 -6 -10 -10 -3 -10 6 0 15 5 18 10 8 12 4 12 -15 0z"/>
<path d="M3030 2090 c0 -5 5 -10 10 -10 6 0 10 5 10 10 0 6 -4 10 -10 10 -5 0
-10 -4 -10 -10z"/>
<path d="M3478 2083 c-3 -10 0 -24 6 -30 26 -29 32 -39 28 -53 -3 -13 -2 -13
7 -1 6 10 6 22 -1 35 -7 12 -17 31 -24 44 -10 20 -12 21 -16 5z"/>
<path d="M760 2050 c0 -5 5 -10 10 -10 6 0 10 5 10 10 0 6 -4 10 -10 10 -5 0
-10 -4 -10 -10z"/>
<path d="M3830 2029 c0 -8 7 -24 15 -35 12 -16 14 -17 15 -3 0 9 7 19 15 23 8
3 15 10 15 16 0 7 -6 8 -18 1 -13 -7 -23 -6 -30 1 -9 9 -12 8 -12 -3z"/>
<path d="M3580 2015 c0 -9 5 -15 11 -13 6 2 11 8 11 13 0 5 -5 11 -11 13 -6 2
-11 -4 -11 -13z"/>
<path d="M885 1999 c-8 -12 -2 -20 19 -23 8 -1 23 -9 33 -17 22 -19 49 -30 57
-22 5 6 -83 73 -96 73 -4 0 -10 -5 -13 -11z"/>
<path d="M3325 2000 c3 -5 8 -10 11 -10 2 0 4 5 4 10 0 6 -5 10 -11 10 -5 0
-7 -4 -4 -10z"/>
<path d="M2700 1990 c0 -5 5 -10 10 -10 6 0 10 5 10 10 0 6 -4 10 -10 10 -5 0
-10 -4 -10 -10z"/>
<path d="M3190 1980 c0 -5 5 -10 10 -10 6 0 10 5 10 10 0 6 -4 10 -10 10 -5 0
-10 -4 -10 -10z"/>
<path d="M2446 1971 c-3 -5 -8 -25 -11 -44 -6 -34 -5 -35 17 -25 27 13 39 78
14 78 -8 0 -17 -4 -20 -9z"/>
<path d="M3533 1963 c0 -7 4 -13 7 -13 4 0 12 6 18 13 8 10 6 13 -7 13 -10 0
-18 -6 -18 -13z"/>
<path d="M1065 1960 c-3 -5 -1 -10 4 -10 6 0 11 5 11 10 0 6 -2 10 -4 10 -3 0
-8 -4 -11 -10z"/>
<path d="M3486 1955 c4 -8 11 -15 16 -15 6 0 5 6 -2 15 -7 8 -14 15 -16 15 -2
0 -1 -7 2 -15z"/>
<path d="M912 1935 c15 -16 30 -26 33 -23 4 3 -9 16 -27 28 l-33 23 27 -28z"/>
<path d="M1650 1946 c0 -24 25 -79 42 -93 12 -11 18 -9 33 7 25 28 13 65 -27
81 -18 7 -36 14 -40 17 -5 2 -8 -4 -8 -12z"/>
<path d="M3900 1956 c0 -2 7 -9 15 -16 9 -7 15 -8 15 -2 0 5 -7 12 -15 16 -8
3 -15 4 -15 2z"/>
<path d="M4170 1954 c0 -13 18 -39 24 -34 2 3 -2 14 -10 24 -8 11 -14 16 -14
10z"/>
<path d="M676 1932 c-11 -19 -29 -100 -33 -154 -6 -76 19 -153 64 -196 31 -29
36 -30 50 -17 9 9 12 23 8 33 -7 19 -10 46 -20 166 -3 43 -10 87 -15 97 -6 9
-7 25 -3 35 4 12 3 15 -5 10 -8 -5 -12 0 -12 13 0 21 -24 29 -34 13z m84 -346
c0 -3 -4 -8 -10 -11 -5 -3 -10 -1 -10 4 0 6 5 11 10 11 6 0 10 -2 10 -4z"/>
<path d="M3190 1930 c0 -5 5 -10 10 -10 6 0 10 5 10 10 0 6 -4 10 -10 10 -5 0
-10 -4 -10 -10z"/>
<path d="M1010 1910 c6 -11 13 -20 16 -20 2 0 0 9 -6 20 -6 11 -13 20 -16 20
-2 0 0 -9 6 -20z"/>
<path d="M3335 1919 c-4 -6 -5 -12 -2 -15 2 -3 7 2 10 11 7 17 1 20 -8 4z"/>
<path d="M3526 1914 c-5 -14 -4 -15 9 -4 17 14 19 20 6 20 -5 0 -12 -7 -15
-16z"/>
<path d="M378 1903 c-3 -4 3 -16 14 -25 21 -21 24 -11 4 15 -8 10 -16 15 -18
10z"/>
<path d="M973 1896 c18 -14 24 -32 7 -21 -5 3 -10 1 -10 -4 0 -14 11 -14 30
-1 13 9 12 12 -4 25 -11 8 -25 15 -30 15 -6 0 -3 -7 7 -14z"/>
<path d="M1885 1890 c-19 -30 77 -90 142 -90 40 0 34 18 -13 34 -25 8 -59 27
-75 41 -33 27 -44 30 -54 15z"/>
<path d="M3376 1891 c-4 -7 -5 -15 -2 -18 9 -9 19 4 14 18 -4 11 -6 11 -12 0z"/>
<path d="M3821 1884 c0 -11 3 -14 6 -6 3 7 2 16 -1 19 -3 4 -6 -2 -5 -13z"/>
<path d="M3460 1883 c0 -5 15 -16 33 -24 20 -9 31 -21 31 -31 -1 -10 2 -16 6
-13 5 3 15 -1 23 -10 13 -13 15 -12 20 4 6 26 -14 47 -53 56 -19 4 -41 12 -47
17 -8 6 -13 7 -13 1z"/>
<path d="M1037 1843 c-4 -22 -2 -39 3 -41 6 -2 10 -8 10 -13 0 -6 -4 -8 -9 -5
-5 3 -8 -6 -8 -19 0 -14 4 -28 10 -32 5 -3 7 -2 4 4 -3 5 0 28 8 51 12 34 12
45 1 67 l-13 25 -6 -37z"/>
<path d="M1760 1863 c0 -4 5 -15 10 -23 8 -13 10 -13 10 2 0 9 -4 20 -10 23
-5 3 -10 3 -10 -2z"/>
<path d="M810 1856 c0 -2 7 -7 16 -10 8 -3 12 -2 9 4 -6 10 -25 14 -25 6z"/>
<path d="M1126 1851 c-4 -5 -2 -12 3 -15 5 -4 12 -2 15 3 4 5 2 12 -3 15 -5 4
-12 2 -15 -3z"/>
<path d="M3235 1850 c3 -5 10 -10 16 -10 5 0 9 5 9 10 0 6 -7 10 -16 10 -8 0
-12 -4 -9 -10z"/>
<path d="M781 1819 c6 -12 9 -34 5 -49 -4 -24 -1 -30 24 -40 16 -7 33 -12 37
-12 4 1 11 -8 15 -18 7 -19 83 -80 100 -80 11 0 10 71 -2 90 -5 8 -10 12 -10
8 0 -4 -19 11 -42 32 -23 22 -47 40 -55 40 -7 0 -13 7 -13 16 0 12 -6 15 -25
10 -18 -5 -25 -2 -25 9 0 8 -5 15 -10 15 -7 0 -7 -7 1 -21z"/>
<path d="M977 1806 c-15 -33 -14 -46 5 -46 5 0 7 9 3 19 -3 11 0 23 6 27 8 5
11 2 7 -7 -3 -8 2 -21 10 -29 14 -13 15 -12 9 4 -4 10 -7 29 -7 42 0 34 -14
30 -33 -10z"/>
<path d="M1582 1821 c-10 -6 -11 -19 -6 -45 8 -46 28 -33 29 19 2 37 -1 40
-23 26z"/>
<path d="M1795 1820 c-3 -5 -1 -10 4 -10 6 0 11 5 11 10 0 6 -2 10 -4 10 -3 0
-8 -4 -11 -10z"/>
<path d="M3836 1814 c-3 -8 -3 -26 0 -39 3 -13 1 -33 -6 -44 -6 -12 -8 -21 -6
-21 7 0 36 56 36 70 0 6 -5 8 -10 5 -7 -4 -9 2 -4 19 7 28 0 36 -10 10z"/>
<path d="M3474 1798 c3 -13 6 -31 6 -40 0 -24 15 -23 40 4 27 29 26 34 -11 47
-42 15 -42 15 -35 -11z"/>
<path d="M3250 1800 c0 -5 5 -10 10 -10 6 0 10 5 10 10 0 6 -4 10 -10 10 -5 0
-10 -4 -10 -10z"/>
<path d="M332 1760 c-7 -18 -7 -32 -1 -35 9 -6 13 8 10 34 -2 7 2 10 8 6 7 -3
8 0 5 9 -8 22 -11 20 -22 -14z"/>
<path d="M3224 1754 c3 -7 -2 -21 -12 -30 -12 -13 -13 -19 -4 -22 15 -5 16
-38 2 -47 -7 -4 -3 -19 10 -39 11 -18 16 -37 12 -41 -4 -5 -1 -5 7 0 10 6 12
2 7 -16 l-7 -24 14 23 c7 12 16 19 21 15 4 -4 4 28 1 72 -3 44 -6 90 -5 101 0
16 -7 22 -26 22 -17 0 -24 -5 -20 -14z"/>
<path d="M1002 1741 c-10 -6 -10 -10 3 -21 8 -7 19 -9 23 -5 4 4 1 10 -6 12
-6 3 -10 9 -6 14 6 11 3 11 -14 0z"/>
<path d="M1513 1739 c9 -6 15 -15 12 -20 -4 -5 -10 -7 -15 -4 -5 3 -11 -25
-15 -62 -3 -38 -8 -82 -11 -99 -3 -20 1 -36 10 -43 18 -15 20 -11 41 69 10 36
22 70 27 77 5 7 5 14 -2 18 -8 5 -6 14 7 28 10 12 14 19 9 15 -5 -4 -21 1 -36
12 -16 11 -32 20 -37 20 -4 0 0 -5 10 -11z"/>
<path d="M1840 1739 c0 -5 5 -7 10 -4 6 3 10 8 10 11 0 2 -4 4 -10 4 -5 0 -10
-5 -10 -11z"/>
<path d="M3480 1714 c0 -8 5 -12 10 -9 6 4 8 11 5 16 -9 14 -15 11 -15 -7z"/>
<path d="M4569 1703 c-11 -13 -11 -17 -1 -20 6 -3 10 -9 6 -14 -3 -5 2 -9 12
-9 13 0 14 3 5 14 -6 7 -9 21 -5 30 8 21 0 21 -17 -1z"/>
<path d="M1230 1690 c0 -5 5 -10 11 -10 5 0 7 5 4 10 -3 6 -8 10 -11 10 -2 0
-4 -4 -4 -10z"/>
<path d="M3093 1636 c4 -44 18 -65 41 -66 5 0 2 8 -7 18 -8 9 -18 32 -20 50
-9 54 -20 52 -14 -2z"/>
<path d="M530 1655 c0 -8 5 -15 10 -15 6 0 10 7 10 15 0 8 -4 15 -10 15 -5 0
-10 -7 -10 -15z"/>
<path d="M2086 1625 c-3 -9 -6 -22 -5 -28 0 -7 5 -1 10 12 5 13 8 26 5 28 -2
2 -6 -3 -10 -12z"/>
<path d="M2820 1620 c0 -5 6 -10 13 -10 19 0 48 -67 54 -125 3 -43 10 -56 49
-95 60 -62 70 -98 40 -155 -45 -83 -84 -121 -134 -130 -23 -4 -42 -11 -42 -16
0 -5 -8 -9 -17 -9 -15 0 -14 -2 3 -14 10 -8 16 -17 12 -21 -10 -10 -71 -12
-90 -3 -9 5 -28 2 -44 -7 -15 -8 -31 -12 -36 -9 -17 11 -46 -7 -41 -25 5 -21
52 -34 89 -25 18 5 24 2 24 -9 0 -20 -16 -30 -50 -31 -26 -1 -77 -37 -95 -66
-8 -13 -6 -13 8 -2 14 12 16 11 14 -10 -4 -36 -22 -62 -77 -108 -60 -50 -57
-24 4 33 42 38 33 52 -11 17 -14 -11 -32 -20 -40 -20 -8 0 -12 -4 -8 -10 8
-12 -16 -50 -32 -50 -7 0 -13 -5 -13 -12 0 -6 -8 -2 -17 8 -19 20 -43 29 -43
16 0 -5 -21 -9 -46 -11 -54 -2 -92 -24 -100 -57 -4 -14 -13 -28 -22 -33 -14
-8 -14 -11 -2 -27 8 -10 10 -15 3 -11 -8 5 -10 -10 -7 -60 3 -37 8 -71 11 -76
3 -6 1 -7 -5 -3 -16 10 -16 10 17 -59 27 -54 28 -61 14 -72 -9 -7 -13 -16 -9
-20 4 -5 14 0 21 10 9 13 20 17 35 12 15 -5 20 -3 19 7 -2 7 2 23 9 35 12 21
11 23 -10 20 -17 -1 -23 3 -24 20 -1 13 4 23 11 23 8 0 16 20 20 50 4 28 10
50 15 50 8 0 23 38 21 53 -1 4 3 7 8 7 5 0 12 10 14 23 5 26 11 -43 8 -87 -2
-22 1 -27 13 -23 8 3 17 1 19 -6 5 -13 52 39 52 58 0 20 11 20 37 -1 24 -18
27 -27 26 -77 -1 -52 -3 -55 -16 -36 -10 15 -21 19 -39 14 -15 -3 -31 0 -41 7
-13 11 -14 11 -4 -7 6 -11 13 -27 15 -35 3 -9 17 -22 33 -30 16 -8 31 -15 33
-17 2 -1 -7 -11 -20 -22 -20 -17 -16 -16 25 4 64 32 76 43 69 63 -4 13 -3 14
5 4 7 -11 15 -10 42 7 19 11 38 17 43 14 5 -3 21 6 35 19 15 13 46 37 70 52
42 28 53 46 30 46 -9 0 -9 3 -1 11 9 9 8 15 0 24 -9 10 -15 4 -27 -29 -9 -22
-20 -40 -25 -39 -6 1 -14 23 -19 49 -5 26 -17 55 -27 65 -21 21 -26 16 -24
-24 1 -19 -3 -26 -12 -23 -17 7 -17 -25 1 -49 8 -11 11 -25 9 -33 -4 -10 -11
-8 -29 9 -13 12 -24 26 -24 31 0 9 -36 62 -57 86 -10 10 -10 19 -2 34 9 16 13
18 20 7 12 -21 21 -5 11 22 -7 19 -4 31 16 56 13 18 29 33 34 33 6 0 4 -7 -3
-17 -13 -15 -12 -15 17 0 17 9 34 14 37 10 4 -3 5 4 2 15 -2 12 0 24 6 27 5 4
14 16 20 28 12 22 12 22 -9 4 -25 -23 -25 -4 1 33 9 13 17 30 17 37 0 6 10 15
23 19 12 4 40 24 62 45 37 36 75 54 59 27 -5 -8 -2 -9 9 -5 13 5 18 -2 23 -31
3 -20 25 -66 48 -101 22 -35 40 -69 38 -77 -2 -8 2 -14 8 -14 6 0 13 14 17 30
3 17 9 30 13 30 5 0 7 12 5 26 -2 19 4 28 21 36 23 11 23 13 9 34 -8 13 -12
30 -9 38 3 9 2 16 -3 16 -5 0 -10 16 -11 35 -2 28 1 33 13 29 10 -4 13 -2 10
8 -4 9 2 14 15 15 11 1 20 -3 20 -9 0 -7 5 -6 14 2 10 8 12 18 7 33 -5 14 -4
27 3 34 6 7 17 20 25 29 13 15 15 15 26 0 7 -9 22 -16 34 -16 25 0 28 -17 4
-23 -17 -4 -17 -5 0 -6 16 -1 16 -3 3 -24 -17 -25 -18 -64 -1 -64 15 1 122
-50 130 -62 10 -17 28 -13 21 4 -3 10 3 17 19 21 33 8 32 14 -10 47 -38 30
-38 52 0 45 12 -3 31 1 41 9 17 13 17 13 -1 27 -13 9 -26 11 -36 6 -10 -6 -21
-5 -29 3 -10 9 -14 9 -17 0 -7 -19 -19 -16 -46 11 -13 12 -30 26 -38 29 -11 4
-10 6 4 6 9 1 17 8 17 16 0 8 5 15 10 15 6 0 10 -5 10 -12 0 -6 3 -8 7 -5 10
11 32 -13 26 -29 -4 -10 4 -14 30 -14 26 0 37 5 41 18 4 10 16 29 27 41 18 19
19 26 9 51 -13 30 -5 74 11 64 5 -3 1 10 -9 28 -11 19 -26 32 -35 30 -11 -2
-15 3 -12 17 5 28 -17 72 -35 68 -8 -1 -14 -10 -12 -18 1 -9 -7 -24 -18 -34
-11 -10 -20 -23 -20 -30 0 -16 -49 -60 -68 -61 -10 -1 -30 -2 -46 -3 -23 -1
-27 -5 -23 -21 3 -11 1 -18 -4 -14 -5 3 -9 12 -9 20 0 8 -4 12 -10 9 -21 -13
-9 8 15 27 14 11 25 28 25 39 0 26 -18 24 -23 -3 -3 -14 -5 -9 -6 15 -1 27 3
37 14 37 18 0 19 9 5 46 -8 19 -8 30 0 38 8 8 12 4 16 -12 4 -12 10 -22 15
-22 15 0 21 21 9 35 -10 12 -9 15 3 15 8 0 18 -6 20 -12 3 -7 6 -1 6 13 2 49
-53 45 -72 -5 -6 -16 -13 -12 -50 27 -41 45 -105 76 -95 47 2 -8 -4 -22 -14
-32 -29 -29 -22 -55 23 -88 23 -16 45 -28 49 -25 11 7 33 -22 47 -64 15 -43
16 -54 4 -46 -5 3 -16 -2 -24 -10 -18 -17 -31 -20 -21 -4 5 8 1 8 -14 0 -11
-6 -23 -16 -25 -23 -3 -7 -6 -4 -6 7 -1 22 -25 90 -60 168 -11 27 -21 55 -21
62 0 8 -20 28 -44 45 -46 31 -66 37 -66 20z m99 -185 c0 -5 -4 -3 -9 5 -5 8
-9 22 -9 30 0 16 17 -16 18 -35z m391 -89 c0 -8 -11 -24 -26 -35 -14 -11 -25
-22 -25 -25 -2 -24 -14 -46 -25 -46 -21 0 -9 49 18 74 12 11 27 20 32 18 4 -2
6 4 3 13 -4 9 -1 15 8 15 8 0 15 -6 15 -14z m30 -106 c0 -5 -2 -10 -4 -10 -3
0 -8 5 -11 10 -3 6 -1 10 4 10 6 0 11 -4 11 -10z m-39 -27 c13 -16 12 -17 -3
-4 -10 7 -18 15 -18 17 0 8 8 3 21 -13z m-651 -357 c0 -11 -19 -15 -25 -6 -3
5 1 10 9 10 9 0 16 -2 16 -4z m-17 -41 c-3 -9 -8 -14 -10 -11 -3 3 -2 9 2 15
9 16 15 13 8 -4z m-269 -131 c4 -10 2 -13 -6 -8 -7 5 -9 2 -5 -9 3 -9 -1 -18
-9 -21 -25 -9 -25 -8 -9 24 18 34 21 36 29 14z m-167 -76 c-3 -8 -6 -5 -6 6
-1 11 2 17 5 13 3 -3 4 -12 1 -19z m483 -58 c0 -5 -4 -10 -9 -10 -6 0 -13 5
-16 10 -3 6 1 10 9 10 9 0 16 -4 16 -10z m-140 -61 c0 -5 3 -8 8 -7 4 1 22 -2
41 -6 31 -8 33 -9 15 -19 -31 -18 -43 -17 -59 6 -13 19 -17 20 -25 7 -8 -12
-10 -9 -10 12 0 20 4 26 15 22 8 -4 15 -10 15 -15z"/>
<path d="M2016 1594 c-5 -14 -4 -15 9 -4 17 14 19 20 6 20 -5 0 -12 -7 -15
-16z"/>
<path d="M1036 1585 c-3 -8 -1 -15 4 -15 6 0 10 7 10 15 0 8 -2 15 -4 15 -2 0
-6 -7 -10 -15z"/>
<path d="M540 1560 c-13 -8 -12 -10 3 -10 9 0 17 5 17 10 0 12 -1 12 -20 0z"/>
<path d="M1016 1534 c-7 -19 2 -62 21 -91 11 -17 12 -22 1 -26 -9 -4 -9 -6 -1
-6 6 -1 18 6 26 14 8 8 17 11 21 8 11 -11 6 -23 -9 -23 -17 0 -19 -9 -6 -29
15 -24 51 4 47 37 -5 37 -16 62 -28 62 -5 0 -16 16 -24 35 -15 37 -38 46 -48
19z"/>
<path d="M1570 1540 c0 -5 5 -10 10 -10 6 0 10 5 10 10 0 6 -4 10 -10 10 -5 0
-10 -4 -10 -10z"/>
<path d="M3456 1525 c-16 -12 -17 -15 -4 -15 9 0 18 -3 21 -7 2 -5 2 -2 1 5
-2 6 1 12 6 12 10 0 16 -21 23 -77 2 -19 -1 -31 -7 -30 -14 3 -11 -112 3 -126
6 -6 11 -21 11 -34 0 -15 5 -21 14 -17 8 3 19 35 26 77 21 116 18 139 -19 185
-35 45 -46 49 -75 27z"/>
<path d="M1100 1520 c0 -5 5 -10 11 -10 5 0 7 5 4 10 -3 6 -8 10 -11 10 -2 0
-4 -4 -4 -10z"/>
<path d="M3224 1485 c-1 -38 1 -43 13 -34 11 10 11 14 1 20 -9 6 -8 10 5 15 9
3 17 11 17 17 0 6 -3 7 -7 4 -3 -4 -11 0 -17 9 -9 12 -11 5 -12 -31z"/>
<path d="M2587 1493 c-2 -5 -5 -46 -5 -93 -1 -68 2 -82 11 -69 7 9 22 21 35
28 13 7 22 21 22 36 0 13 5 27 11 30 6 4 8 13 6 19 -3 7 -1 19 3 27 6 8 4 16
-3 21 -16 10 -75 10 -80 1z"/>
<path d="M1210 1474 c0 -8 5 -12 10 -9 6 4 8 11 5 16 -9 14 -15 11 -15 -7z"/>
<path d="M1770 1455 c-15 -39 -17 -87 -4 -92 13 -4 34 47 34 83 0 34 -19 39
-30 9z"/>
<path d="M937 1453 c-15 -26 26 -178 51 -188 20 -7 34 4 28 24 -4 11 -2 10 10
-4 16 -20 16 -20 9 3 -4 13 -2 22 4 22 17 0 3 58 -19 80 -11 11 -20 27 -20 35
0 8 -8 15 -18 15 -10 0 -23 5 -29 11 -6 6 -13 7 -16 2z m66 -138 c-6 -18 -19
-19 -29 -4 -7 12 15 31 28 23 4 -3 5 -11 1 -19z"/>
<path d="M3214 1415 c-4 -8 -12 -15 -20 -15 -8 0 -14 -5 -14 -11 0 -6 5 -9 12
-7 13 5 44 48 34 48 -4 0 -9 -7 -12 -15z"/>
<path d="M1680 1339 c-8 -11 -25 -35 -37 -51 -25 -35 -21 -53 7 -38 12 6 17
16 13 25 -3 9 5 25 21 40 25 23 34 45 18 45 -4 0 -14 -9 -22 -21z"/>
<path d="M1587 1190 c-43 -38 -45 -42 -40 -83 7 -63 12 -75 23 -57 6 8 10 26
10 39 0 13 14 49 31 79 17 30 28 56 26 58 -2 2 -24 -14 -50 -36z"/>
<path d="M3567 1199 c-4 -15 -1 -19 10 -17 22 4 27 24 9 31 -8 3 -16 -2 -19
-14z"/>
<path d="M556 1196 c3 -8 13 -17 22 -21 13 -5 13 -2 -3 15 -21 24 -26 25 -19
6z"/>
<path d="M2130 1206 c0 -9 61 -48 66 -43 8 7 -37 47 -53 47 -7 0 -13 -2 -13
-4z"/>
<path d="M1637 1175 c-3 -11 -5 -33 -2 -50 2 -16 4 -36 4 -42 2 -24 17 -13 29
20 10 26 10 34 -2 42 -7 6 -16 19 -18 30 -4 20 -4 20 -11 0z"/>
<path d="M1438 1160 c-9 -9 -12 -23 -8 -30 5 -8 9 -4 13 10 4 15 11 21 21 17
9 -4 16 -2 16 2 0 18 -28 19 -42 1z"/>
<path d="M3440 1139 c0 -5 5 -7 10 -4 6 3 10 8 10 11 0 2 -4 4 -10 4 -5 0 -10
-5 -10 -11z"/>
<path d="M4651 1038 c-91 -106 -88 -101 -88 -120 0 -30 30 -11 103 67 55 59
74 86 74 107 0 15 -4 28 -9 28 -5 0 -41 -37 -80 -82z"/>
<path d="M874 1046 c27 -31 49 -56 51 -56 1 0 2 13 1 29 -1 17 -6 27 -13 24
-6 -3 -20 5 -30 17 -10 12 -27 26 -37 32 -11 6 2 -15 28 -46z"/>
<path d="M3425 1082 c-11 -2 -25 -8 -32 -13 -7 -6 -12 -6 -15 0 -2 7 -8 7 -18
1 -13 -8 -13 -10 1 -10 9 0 19 -7 23 -15 8 -21 20 -19 52 8 28 25 24 37 -11
29z"/>
<path d="M1294 1065 c-3 -11 -29 -35 -58 -53 -47 -29 -54 -38 -60 -74 -4 -23
-18 -54 -31 -70 -30 -36 -31 -49 -6 -73 19 -17 21 -16 40 16 l20 33 -6 -67
c-5 -64 -4 -67 21 -78 14 -7 28 -10 31 -8 7 7 8 73 1 89 -7 17 1 30 29 47 11
6 19 17 17 24 -8 31 -3 137 8 178 6 23 9 46 5 49 -3 3 -8 -3 -11 -13z m-87
-207 c-3 -8 -6 -5 -6 6 -1 11 2 17 5 13 3 -3 4 -12 1 -19z"/>
<path d="M1725 1070 c-3 -6 -1 -10 4 -10 18 0 12 -18 -8 -25 -18 -6 -18 -7 3
-28 22 -21 123 -77 139 -77 4 0 7 7 7 15 0 17 -31 50 -69 75 -13 8 -34 25 -47
37 -13 13 -26 19 -29 13z"/>
<path d="M1261 1054 c0 -11 3 -14 6 -6 3 7 2 16 -1 19 -3 4 -6 -2 -5 -13z"/>
<path d="M970 996 c0 -9 -5 -16 -11 -16 -5 0 -7 -4 -4 -10 3 -5 16 -10 28 -9
12 0 17 3 10 5 -7 3 -10 11 -7 19 3 7 1 16 -5 20 -6 3 -11 -1 -11 -9z"/>
<path d="M1380 995 c-10 -12 -10 -15 3 -15 19 0 31 16 18 24 -5 3 -14 -1 -21
-9z"/>
<path d="M1433 998 c-13 -21 -53 -39 -66 -31 -12 7 7 -25 53 -88 14 -20 32
-55 39 -77 14 -42 37 -60 54 -43 7 7 5 25 -7 53 -16 42 -16 43 4 57 23 15 27
33 6 25 -10 -4 -13 0 -10 13 3 10 -6 30 -21 47 -14 16 -25 35 -25 43 0 16 -16
17 -27 1z"/>
<path d="M3206 983 c-6 -14 -5 -15 5 -6 7 7 10 15 7 18 -3 3 -9 -2 -12 -12z"/>
<path d="M4689 958 c-20 -24 -44 -55 -53 -70 -18 -28 -18 -28 6 -28 34 0 98
72 98 111 0 16 -4 29 -8 29 -4 0 -24 -19 -43 -42z"/>
<path d="M3267 973 c-4 -3 -7 -11 -7 -17 0 -6 5 -5 12 2 6 6 9 14 7 17 -3 3
-9 2 -12 -2z"/>
<path d="M2445 960 c-3 -5 1 -10 9 -10 9 0 16 5 16 10 0 6 -4 10 -9 10 -6 0
-13 -4 -16 -10z"/>
<path d="M3240 940 c0 -5 5 -10 11 -10 5 0 7 5 4 10 -3 6 -8 10 -11 10 -2 0
-4 -4 -4 -10z"/>
<path d="M2200 920 c0 -5 5 -10 10 -10 6 0 10 5 10 10 0 6 -4 10 -10 10 -5 0
-10 -4 -10 -10z"/>
<path d="M3120 919 c0 -5 5 -7 10 -4 6 3 10 8 10 11 0 2 -4 4 -10 4 -5 0 -10
-5 -10 -11z"/>
<path d="M2440 910 c0 -5 5 -10 10 -10 6 0 10 5 10 10 0 6 -4 10 -10 10 -5 0
-10 -4 -10 -10z"/>
<path d="M2797 893 c-11 -11 -17 -13 -17 -5 0 7 -5 12 -11 12 -8 0 -8 -5 1
-15 10 -12 10 -25 -3 -68 -16 -55 -20 -130 -7 -122 5 3 6 -3 3 -13 -2 -10 2
-23 9 -29 20 -16 71 -20 75 -5 3 6 0 12 -5 12 -5 0 -10 17 -11 38 -3 72 -6 87
-19 95 -8 5 -9 14 -3 25 12 24 21 92 13 92 -4 0 -15 -8 -25 -17z"/>
<path d="M3144 899 c-3 -6 0 -18 9 -26 13 -13 14 -12 10 11 -6 29 -9 31 -19
15z"/>
<path d="M2325 890 c-3 -5 -1 -10 4 -10 6 0 11 5 11 10 0 6 -2 10 -4 10 -3 0
-8 -4 -11 -10z"/>
<path d="M3030 897 c0 -6 17 -37 36 -66 2 -1 12 6 24 17 18 16 19 20 6 25 -9
4 -15 1 -13 -5 1 -6 -4 -13 -10 -15 -7 -3 -13 -1 -13 4 0 11 -29 51 -30 40z"/>
<path d="M919 856 c16 -19 44 -21 39 -3 -3 6 -15 14 -28 15 -21 3 -22 2 -11
-12z"/>
<path d="M3206 845 c-11 -8 -15 -15 -9 -15 6 0 16 7 23 15 16 19 11 19 -14 0z"/>
<path d="M2300 821 c0 -6 5 -13 10 -16 6 -3 10 1 10 9 0 9 -4 16 -10 16 -5 0
-10 -4 -10 -9z"/>
<path d="M3058 758 c-21 -11 -38 -25 -38 -31 0 -8 3 -8 9 1 4 7 12 12 17 10
10 -2 74 30 74 37 0 9 -25 2 -62 -17z"/>
<path d="M2640 755 c0 -10 7 -15 18 -13 21 4 19 22 -2 26 -10 2 -16 -3 -16
-13z"/>
<path d="M2617 723 c-11 -10 -8 -20 6 -20 8 0 14 6 14 14 0 14 -10 17 -20 6z"/>
<path d="M2945 681 c-3 -10 -11 -18 -18 -18 -18 2 -87 -35 -87 -46 0 -5 -11
-20 -26 -33 -14 -13 -23 -24 -20 -24 6 0 77 41 91 53 6 4 29 21 53 38 23 17
40 35 36 40 -9 15 -22 10 -29 -10z"/>
<path d="M4349 663 c-13 -16 -12 -17 4 -4 16 13 21 21 13 21 -2 0 -10 -8 -17
-17z"/>
<path d="M1090 636 c0 -13 20 -26 41 -26 15 0 10 27 -7 34 -24 9 -34 7 -34 -8z"/>
<path d="M2115 620 c4 -6 -7 -8 -26 -6 -23 3 -36 -2 -52 -20 -14 -16 -23 -20
-28 -13 -10 17 -17 -3 -9 -31 l6 -25 17 33 c21 38 30 42 21 8 -4 -17 1 -31 15
-45 12 -12 19 -26 16 -31 -4 -6 3 -10 13 -10 22 0 32 18 32 56 0 17 4 23 12
18 8 -5 9 -2 5 10 -4 10 -7 29 -7 42 0 13 -5 24 -11 24 -5 0 -7 -4 -4 -10z"/>
<path d="M861 604 c0 -11 3 -14 6 -6 3 7 2 16 -1 19 -3 4 -6 -2 -5 -13z"/>
<path d="M2780 610 c0 -5 5 -10 11 -10 5 0 7 5 4 10 -3 6 -8 10 -11 10 -2 0
-4 -4 -4 -10z"/>
<path d="M1060 604 c0 -3 11 -20 24 -37 13 -18 36 -57 51 -87 17 -37 24 -45
20 -25 -4 17 -25 58 -47 93 -38 58 -48 70 -48 56z"/>
<path d="M1676 491 c-4 -7 -5 -15 -2 -18 9 -9 19 4 14 18 -4 11 -6 11 -12 0z"/>
<path d="M2045 450 c3 -5 11 -10 16 -10 6 0 7 5 4 10 -3 6 -11 10 -16 10 -6 0
-7 -4 -4 -10z"/>
<path d="M1571 406 c-8 -9 -8 -21 0 -45 12 -34 24 -40 33 -16 3 8 13 15 22 15
12 0 15 6 10 23 -3 12 -6 25 -6 30 0 12 -47 8 -59 -7z"/>
<path d="M1698 399 c-12 -13 -14 -19 -5 -19 7 0 5 -5 -5 -11 -10 -5 -15 -16
-12 -24 4 -9 0 -15 -9 -15 -8 0 -21 -7 -28 -17 -13 -15 -11 -15 24 -9 36 7 38
6 32 -13 -4 -12 -2 -21 4 -21 6 0 11 -8 11 -17 1 -22 53 -80 88 -99 15 -7 45
-39 68 -71 40 -57 84 -83 84 -49 0 8 -4 18 -10 21 -5 3 -10 11 -10 17 0 18 27
-10 40 -42 10 -24 19 -30 41 -30 27 0 34 8 30 38 -1 6 3 12 9 12 6 0 8 5 4 12
-4 6 -3 8 4 4 6 -3 13 -2 17 4 4 6 10 8 14 6 4 -3 23 11 42 31 26 27 28 33 12
24 -13 -6 -23 -9 -23 -5 0 3 -6 2 -13 -4 -19 -16 -59 -11 -52 6 3 9 0 12 -9 9
-7 -3 -13 0 -13 6 1 32 -4 47 -16 47 -7 0 -23 13 -35 29 -13 19 -28 28 -39 25
-21 -5 -33 3 -54 36 -9 14 -40 35 -68 47 l-52 22 -19 -21 -19 -21 -11 28 c-7
19 -8 38 -1 57 11 32 4 35 -21 7z m173 -286 c-8 -15 -9 -12 -6 12 6 48 7 51
12 28 2 -12 0 -30 -6 -40z m49 -25 c0 -6 -6 -5 -15 2 -8 7 -15 14 -15 16 0 2
7 1 15 -2 8 -4 15 -11 15 -16z"/>
<path d="M2066 393 c-6 -14 -5 -15 5 -6 7 7 10 15 7 18 -3 3 -9 -2 -12 -12z"/>
<path d="M2250 400 c0 -5 5 -10 10 -10 6 0 10 5 10 10 0 6 -4 10 -10 10 -5 0
-10 -4 -10 -10z"/>
<path d="M2168 365 c2 -14 6 -25 8 -25 2 0 4 11 4 25 0 14 -4 25 -9 25 -4 0
-6 -11 -3 -25z"/>
<path d="M1190 365 c0 -8 4 -15 10 -15 5 0 7 7 4 15 -4 8 -8 15 -10 15 -2 0
-4 -7 -4 -15z"/>
<path d="M2140 350 c-13 -8 -13 -11 2 -27 21 -21 31 -13 21 15 -6 16 -12 19
-23 12z"/>
<path d="M2290 340 c0 -5 5 -10 10 -10 6 0 10 5 10 10 0 6 -4 10 -10 10 -5 0
-10 -4 -10 -10z"/>
<path d="M2400 320 c-9 -6 -10 -10 -3 -10 6 0 15 5 18 10 8 12 4 12 -15 0z"/>
<path d="M1545 269 c-4 -6 -5 -12 -2 -15 2 -3 7 2 10 11 7 17 1 20 -8 4z"/>
<path d="M2294 245 c-10 -8 -14 -15 -8 -15 6 0 17 7 24 15 16 19 9 19 -16 0z"/>
<path d="M2001 224 c0 -11 3 -14 6 -6 3 7 2 16 -1 19 -3 4 -6 -2 -5 -13z"/>
<path d="M1344 180 c87 -123 166 -206 166 -174 0 3 -28 38 -62 77 -35 40 -72
83 -83 97 -42 53 -58 52 -21 0z"/>
<path d="M1530 226 c0 -8 53 -162 62 -178 5 -10 14 -18 20 -18 9 0 9 3 0 12
-7 7 -12 26 -12 43 0 44 -29 137 -40 130 -6 -4 -10 -1 -10 4 0 6 -4 11 -10 11
-5 0 -10 -2 -10 -4z"/>
<path d="M1046 207 c3 -10 9 -15 12 -12 3 3 0 11 -7 18 -10 9 -11 8 -5 -6z"/>
<path d="M1210 184 c0 -5 11 -22 25 -38 14 -16 25 -35 25 -43 0 -8 5 -11 10
-8 7 4 9 -2 5 -18 -10 -37 20 -77 56 -77 27 0 40 14 21 22 -5 2 -37 39 -71 83
-76 96 -71 90 -71 79z m98 -140 c-10 -10 -28 6 -28 24 0 15 1 15 17 -1 9 -9
14 -19 11 -23z m22 -24 c0 -5 -4 -10 -10 -10 -5 0 -10 5 -10 10 0 6 5 10 10
10 6 0 10 -4 10 -10z"/>
<path d="M1191 131 c-7 -5 -10 -14 -7 -20 11 -18 25 -13 23 9 -1 11 -1 20 -2
20 0 0 -6 -4 -14 -9z"/>
<path d="M1209 89 c-11 -11 -18 -24 -14 -27 3 -4 10 0 14 7 7 10 13 11 27 2
11 -6 14 -11 7 -11 -8 0 -7 -9 4 -31 8 -16 17 -28 20 -25 10 9 -9 66 -25 76
-15 8 -15 11 -2 20 10 6 11 10 3 10 -7 0 -22 -9 -34 -21z"/>
</g>
</svg>
